<svg xmlns="http://www.w3.org/2000/svg" xmlns:xlink="http://www.w3.org/1999/xlink" width="18.732" height="17.928" viewBox="0 0 18.732 17.928">
  <g id="arrow-left" transform="translate(0 -0.036)">
    <path id="Path" d="M8.94,17.928a2.184,2.184,0,0,1-1.556-.646L.641,10.515a2.2,2.2,0,0,1,0-3.1L7.384.646a2.2,2.2,0,0,1,3.587.708A2.165,2.165,0,0,1,10.5,3.748l-3,3.02h9.036a2.2,2.2,0,1,1,0,4.39.732.732,0,1,1,0-1.463.732.732,0,0,0,0-1.463H5.743a.732.732,0,0,1-.519-1.247L9.461,2.717A.735.735,0,0,0,8.94,1.463a.73.73,0,0,0-.52.216L1.678,8.446a.733.733,0,0,0,0,1.036L8.42,16.249a.73.73,0,0,0,.52.216.735.735,0,0,0,.521-1.253L5.224,10.943A.732.732,0,0,1,5.743,9.7h7.135a.732.732,0,0,1,0,1.463H7.5l3,3.021a2.2,2.2,0,0,1-1.56,3.748Z" transform="translate(0 0.036)"/>
  </g>
</svg>
